<?xml version="1.0" standalone="no"?>
<!DOCTYPE svg PUBLIC "-//W3C//DTD SVG 20010904//EN"
 "http://www.w3.org/TR/2001/REC-SVG-20010904/DTD/svg10.dtd">
<svg version="1.0" xmlns="http://www.w3.org/2000/svg"
 width="1290.000000pt" height="1229.000000pt" viewBox="0 0 1290.000000 1229.000000"
 preserveAspectRatio="xMidYMid meet">

<g transform="translate(0.000000,1229.000000) scale(0.100000,-0.100000)"
fill="#000000" stroke="none">
<path d="M2877 8943 c-4 -3 -7 -666 -7 -1473 0 -1127 3 -1469 12 -1478 9 -9
178 -12 699 -12 l688 0 102 76 c189 141 302 262 464 499 124 181 324 361 509
459 342 180 748 167 1101 -35 143 -82 226 -150 450 -369 115 -113 289 -282
385 -376 184 -181 220 -213 259 -234 18 -9 114 -14 355 -17 l331 -5 355 212
c195 117 402 240 460 275 646 383 898 536 913 553 16 17 17 80 15 973 l-3 954
-1613 3 -1613 2 -15 -36 c-18 -44 -134 -494 -209 -814 -69 -291 -82 -337 -107
-378 -24 -38 -42 -31 -51 21 -4 17 -72 291 -152 607 -102 405 -150 579 -162
588 -13 9 -347 12 -1588 12 -865 0 -1575 -3 -1578 -7z"/>
<path d="M5770 6641 c-241 -55 -432 -231 -515 -476 -27 -78 -32 -258 -10 -347
106 -439 560 -663 979 -483 104 45 206 131 276 235 42 63 105 207 115 263 7
35 5 40 -34 75 -22 20 -84 60 -138 88 -82 42 -98 54 -101 76 -4 32 34 64 131
107 88 40 101 64 67 129 -51 96 -203 233 -310 280 -88 38 -104 43 -179 57 -97
19 -186 18 -281 -4z"/>
<path d="M2875 5788 c-3 -7 -4 -731 -3 -1608 l3 -1595 1552 -3 c1362 -2 1553
0 1566 13 9 8 25 56 37 107 12 51 52 219 90 373 38 154 82 336 99 405 67 279
132 547 142 583 9 35 31 49 44 28 3 -5 88 -339 190 -743 152 -604 188 -736
206 -750 20 -17 110 -18 1583 -18 1202 0 1565 3 1574 12 18 18 17 2207 -1
2230 -6 8 -93 62 -192 119 -244 140 -375 215 -1135 655 l-345 199 -415 3
c-274 2 -427 0 -452 -8 -28 -8 -77 -54 -224 -208 -477 -501 -651 -646 -871
-725 -275 -99 -670 -81 -930 43 -135 64 -189 110 -398 345 -260 290 -478 473
-634 529 -54 20 -79 21 -769 24 -572 2 -713 0 -717 -10z"/>
</g>
</svg>
